<svg xmlns="http://www.w3.org/2000/svg" width="79.09" height="90" viewBox="0 0 79.09 90">
  <g id="noun_Graphene_29695" transform="translate(-10.455 -4.996)">
    <g id="Grupo_33" data-name="Grupo 33" transform="translate(-0.625 -1083.286)">
      <path id="Caminho_419" data-name="Caminho 419" d="M49.472,1088.282v10.355a6.534,6.534,0,0,0-4.711,9.607L31.667,1115.8a6.541,6.541,0,0,0-10.54-.881l-8.893-5.134-1.154,2,8.876,5.116a6.517,6.517,0,0,0,4.966,8.717v15.33a6.516,6.516,0,0,0-4.966,8.717l-8.876,5.116,1.154,2,8.893-5.134a6.547,6.547,0,0,0,9.2.7l13.736,7.925a6.531,6.531,0,0,0,5.406,7.669v10.346h2.307v-10.4a6.543,6.543,0,0,0,5.248-6.41,6.622,6.622,0,0,0-.114-1.2l13.736-7.934a6.545,6.545,0,0,0,9.29-.8l9.078,5.239,1.154-2-9.1-5.257a6.509,6.509,0,0,0-5.01-8.577v-15.33a6.518,6.518,0,0,0,5.019-8.577l9.1-5.257-1.154-2-9.078,5.239a6.531,6.531,0,0,0-10.628.784l-13.094-7.564a6.531,6.531,0,0,0-4.438-9.554v-10.408H49.472Zm-3.24,21.776a6.526,6.526,0,0,0,8.506,0l13.736,7.934a6.531,6.531,0,0,0,5.274,7.625v15.33a6.535,6.535,0,0,0-4.579,9.58l-13.094,7.564a6.532,6.532,0,0,0-11.174-.009l-13.094-7.555a6.535,6.535,0,0,0-4.579-9.58v-15.33a6.515,6.515,0,0,0,5.266-7.625l13.736-7.934Z" fill="#000b3c"/>
    </g>
  </g>
</svg>
