<svg id="undraw_teaching_f1cm" xmlns="http://www.w3.org/2000/svg" width="948.36" height="758" viewBox="0 0 948.36 758">
  <rect id="Retângulo_53" data-name="Retângulo 53" width="86" height="26" rx="7.43" transform="translate(193.87 130)" fill="#6c63ff" opacity="0.1"/>
  <rect id="Retângulo_54" data-name="Retângulo 54" width="86" height="26" rx="7.43" transform="translate(283.87 156)" fill="#6c63ff" opacity="0.1"/>
  <rect id="Retângulo_55" data-name="Retângulo 55" width="86" height="26" rx="7.43" transform="translate(373.87 182)" fill="#6c63ff" opacity="0.1"/>
  <rect id="Retângulo_56" data-name="Retângulo 56" width="86" height="26" rx="7.43" transform="translate(193.87 91)" fill="#6c63ff" opacity="0.1"/>
  <rect id="Retângulo_57" data-name="Retângulo 57" width="86" height="26" rx="7.43" transform="translate(283.87 117)" fill="#6c63ff" opacity="0.1"/>
  <rect id="Retângulo_58" data-name="Retângulo 58" width="86" height="26" rx="7.43" transform="translate(373.87 143)" fill="#6c63ff" opacity="0.1"/>
  <rect id="Retângulo_59" data-name="Retângulo 59" width="86" height="26" rx="7.43" transform="translate(473.87 130)" fill="#6c63ff" opacity="0.1"/>
  <rect id="Retângulo_60" data-name="Retângulo 60" width="86" height="26" rx="7.43" transform="translate(563.87 156)" fill="#6c63ff" opacity="0.1"/>
  <rect id="Retângulo_61" data-name="Retângulo 61" width="86" height="26" rx="7.43" transform="translate(653.87 182)" fill="#6c63ff" opacity="0.1"/>
  <rect id="Retângulo_62" data-name="Retângulo 62" width="86" height="26" rx="7.43" transform="translate(473.87 91)" fill="#6c63ff" opacity="0.1"/>
  <rect id="Retângulo_63" data-name="Retângulo 63" width="86" height="26" rx="7.43" transform="translate(563.87 117)" fill="#6c63ff" opacity="0.1"/>
  <rect id="Retângulo_64" data-name="Retângulo 64" width="86" height="26" rx="7.43" transform="translate(653.87 143)" fill="#6c63ff" opacity="0.1"/>
  <rect id="Retângulo_65" data-name="Retângulo 65" width="86" height="26" rx="7.43" transform="translate(193.87 39)" fill="#6c63ff" opacity="0.1"/>
  <rect id="Retângulo_66" data-name="Retângulo 66" width="86" height="26" rx="7.43" transform="translate(283.87 65)" fill="#6c63ff" opacity="0.1"/>
  <rect id="Retângulo_67" data-name="Retângulo 67" width="86" height="26" rx="7.43" transform="translate(373.87 91)" fill="#6c63ff" opacity="0.1"/>
  <rect id="Retângulo_68" data-name="Retângulo 68" width="86" height="26" rx="7.43" transform="translate(193.87)" fill="#6c63ff" opacity="0.1"/>
  <rect id="Retângulo_69" data-name="Retângulo 69" width="86" height="26" rx="7.43" transform="translate(283.87 26)" fill="#6c63ff" opacity="0.1"/>
  <rect id="Retângulo_70" data-name="Retângulo 70" width="86" height="26" rx="7.43" transform="translate(373.87 52)" fill="#6c63ff" opacity="0.1"/>
  <rect id="Retângulo_71" data-name="Retângulo 71" width="86" height="26" rx="7.43" transform="translate(473.87 39)" fill="#6c63ff" opacity="0.1"/>
  <rect id="Retângulo_72" data-name="Retângulo 72" width="86" height="26" rx="7.43" transform="translate(563.87 65)" fill="#6c63ff" opacity="0.1"/>
  <rect id="Retângulo_73" data-name="Retângulo 73" width="86" height="26" rx="7.43" transform="translate(653.87 91)" fill="#6c63ff" opacity="0.1"/>
  <rect id="Retângulo_74" data-name="Retângulo 74" width="86" height="26" rx="7.43" transform="translate(473.87)" fill="#6c63ff" opacity="0.1"/>
  <rect id="Retângulo_75" data-name="Retângulo 75" width="86" height="26" rx="7.43" transform="translate(563.87 26)" fill="#6c63ff" opacity="0.1"/>
  <rect id="Retângulo_76" data-name="Retângulo 76" width="86" height="26" rx="7.43" transform="translate(653.87 52)" fill="#6c63ff" opacity="0.1"/>
  <rect id="Retângulo_77" data-name="Retângulo 77" width="86" height="26" rx="7.43" transform="translate(193.87 593)" fill="#6c63ff" opacity="0.1"/>
  <rect id="Retângulo_78" data-name="Retângulo 78" width="86" height="26" rx="7.43" transform="translate(283.87 619)" fill="#6c63ff" opacity="0.1"/>
  <rect id="Retângulo_79" data-name="Retângulo 79" width="86" height="26" rx="7.43" transform="translate(373.87 645)" fill="#6c63ff" opacity="0.1"/>
  <rect id="Retângulo_80" data-name="Retângulo 80" width="86" height="26" rx="7.43" transform="translate(193.87 554)" fill="#6c63ff" opacity="0.1"/>
  <rect id="Retângulo_81" data-name="Retângulo 81" width="86" height="26" rx="7.43" transform="translate(283.87 580)" fill="#6c63ff" opacity="0.1"/>
  <rect id="Retângulo_82" data-name="Retângulo 82" width="86" height="26" rx="7.43" transform="translate(373.87 606)" fill="#6c63ff" opacity="0.1"/>
  <rect id="Retângulo_83" data-name="Retângulo 83" width="86" height="26" rx="7.43" transform="translate(473.87 593)" fill="#6c63ff" opacity="0.1"/>
  <rect id="Retângulo_84" data-name="Retângulo 84" width="86" height="26" rx="7.43" transform="translate(563.87 619)" fill="#6c63ff" opacity="0.1"/>
  <rect id="Retângulo_85" data-name="Retângulo 85" width="86" height="26" rx="7.43" transform="translate(653.87 645)" fill="#6c63ff" opacity="0.1"/>
  <rect id="Retângulo_86" data-name="Retângulo 86" width="86" height="26" rx="7.43" transform="translate(473.87 554)" fill="#6c63ff" opacity="0.1"/>
  <rect id="Retângulo_87" data-name="Retângulo 87" width="86" height="26" rx="7.43" transform="translate(563.87 580)" fill="#6c63ff" opacity="0.1"/>
  <rect id="Retângulo_88" data-name="Retângulo 88" width="86" height="26" rx="7.43" transform="translate(653.87 606)" fill="#6c63ff" opacity="0.1"/>
  <rect id="Retângulo_89" data-name="Retângulo 89" width="86" height="26" rx="7.43" transform="translate(193.87 502)" fill="#6c63ff" opacity="0.1"/>
  <rect id="Retângulo_90" data-name="Retângulo 90" width="86" height="26" rx="7.43" transform="translate(283.87 528)" fill="#6c63ff" opacity="0.1"/>
  <rect id="Retângulo_91" data-name="Retângulo 91" width="86" height="26" rx="7.43" transform="translate(373.87 554)" fill="#6c63ff" opacity="0.1"/>
  <rect id="Retângulo_92" data-name="Retângulo 92" width="86" height="26" rx="7.43" transform="translate(193.87 463)" fill="#6c63ff" opacity="0.1"/>
  <rect id="Retângulo_93" data-name="Retângulo 93" width="86" height="26" rx="7.43" transform="translate(283.87 489)" fill="#6c63ff" opacity="0.1"/>
  <rect id="Retângulo_94" data-name="Retângulo 94" width="86" height="26" rx="7.43" transform="translate(373.87 515)" fill="#6c63ff" opacity="0.1"/>
  <rect id="Retângulo_95" data-name="Retângulo 95" width="86" height="26" rx="7.43" transform="translate(473.87 502)" fill="#6c63ff" opacity="0.1"/>
  <rect id="Retângulo_96" data-name="Retângulo 96" width="86" height="26" rx="7.43" transform="translate(563.87 528)" fill="#6c63ff" opacity="0.1"/>
  <rect id="Retângulo_97" data-name="Retângulo 97" width="86" height="26" rx="7.43" transform="translate(653.87 554)" fill="#6c63ff" opacity="0.1"/>
  <rect id="Retângulo_98" data-name="Retângulo 98" width="86" height="26" rx="7.43" transform="translate(473.87 463)" fill="#6c63ff" opacity="0.1"/>
  <rect id="Retângulo_99" data-name="Retângulo 99" width="86" height="26" rx="7.43" transform="translate(563.87 489)" fill="#6c63ff" opacity="0.1"/>
  <rect id="Retângulo_100" data-name="Retângulo 100" width="86" height="26" rx="7.43" transform="translate(653.87 515)" fill="#6c63ff" opacity="0.1"/>
  <ellipse id="Elipse_156" data-name="Elipse 156" cx="438.5" cy="36" rx="438.5" ry="36" transform="translate(43.87 686)" fill="#6c63ff" opacity="0.1"/>
  <path id="Caminho_502" data-name="Caminho 502" d="M210.47,257.8c41.35,17.92,65.11,55,65.11,55s-43.29,8-84.65-9.91-65.11-55-65.11-55S169.11,239.88,210.47,257.8Z" transform="translate(-125.82 -71)" fill="#6c63ff"/>
  <path id="Caminho_503" data-name="Caminho 503" d="M337.37,189c12.79-21,34.57-31,34.57-31s1,23.94-11.75,44.88-34.58,30.93-34.58,30.93S324.57,209.88,337.37,189Z" transform="translate(-125.82 -71)" fill="#6c63ff"/>
  <path id="Caminho_504" data-name="Caminho 504" d="M243.35,211.47c9.15,32.66,34.37,54.16,34.37,54.16s10.39-31.47,1.24-64.14-34.38-54.16-34.38-54.16S234.19,178.8,243.35,211.47Z" transform="translate(-125.82 -71)" fill="#46455b"/>
  <rect id="Retângulo_101" data-name="Retângulo 101" width="729" height="365" rx="7.21" transform="translate(118.87 139)" fill="#3f3d56"/>
  <path id="Caminho_505" data-name="Caminho 505" d="M118.87,482h729v14.79a7.21,7.21,0,0,1-7.21,7.21H126.08a7.21,7.21,0,0,1-7.21-7.21Z" opacity="0.1"/>
  <rect id="Retângulo_102" data-name="Retângulo 102" width="54" height="27" rx="2.5" transform="translate(189.87 455)" fill="#6c63ff"/>
  <rect id="Retângulo_103" data-name="Retângulo 103" width="37" height="4" rx="2" transform="translate(258.87 478)" fill="#6c63ff"/>
  <path id="Caminho_506" data-name="Caminho 506" d="M351.84,281.38c26.39,4.87,53.31,0,79.59-3.3l79.87-10c3.23-.41,7.93-2.34,9.83,1.61,1.07,2.21.35,7,.43,9.54.21,7,.19,14,0,21-.36,13.38-1.34,26.73-2.59,40.05-2.43,26.07-5.87,52-7.59,78.17-.88,13.32-1.32,26.68-.93,40,.09,3.18.22,6.36.41,9.53.21,3.55,1.8,8.82-2.07,11.19-2.21,1.36-6.56,1.29-9.09,1.69-4,.63-8,1.13-12.08,1.54-26.89,2.69-54.13,1.57-81.12,1.41l-81.5-.42-19.88-.11c-1.8,0-8.29,1.08-9.4-1.06-.47-.91.78-5.17,1-6.31q.46-2.82,1-5.63c2.32-13.15,5.06-26.22,7.82-39.28,5.93-28,12-56.14,14.44-84.74,1.21-14.35.41-28.83,1.89-43.15.69-6.65,1.51-21.49,10.36-22.08,7.5-.5,15.22,0,22.74,0a1.5,1.5,0,0,0,0-3c-7.1,0-14.21-.19-21.31-.05-4.72.09-8,1.21-10.25,5.55-5.75,11.14-5.16,26-5.34,38.16-.43,29.11-4.9,57.6-10.72,86.07-2.93,14.33-6.09,28.61-9,42.95-1.37,6.85-2.68,13.72-3.88,20.61-.56,3.28-3.39,10.51-.9,13.52s10.15,1.39,13.58,1.41l23.86.14,45.72.26c29.54.17,59.18,1,88.71.13,14.1-.42,29-1,42.73-4.37,4.09-1,6.06-2.88,6.22-7.24.24-6.76-.86-13.73-1-20.52-1-58.1,12.65-115.39,11.25-173.51-.09-3.95,1.4-13.91-2.92-16.3-1.94-1.08-4.46-.49-6.5-.25-3.9.45-7.79,1-11.69,1.46l-50.65,6.32c-16.19,2-32.37,4.16-48.59,6-17.17,2-34.51,3.19-51.62,0-1.89-.35-2.7,2.54-.8,2.89Z" transform="translate(-125.82 -71)" fill="#6c63ff"/>
  <path id="Caminho_507" data-name="Caminho 507" d="M320,316.73l199.82-9.8c1.93-.1,1.94-3.1,0-3L320,313.73C318.08,313.82,318.07,316.82,320,316.73Z" transform="translate(-125.82 -71)" fill="#6c63ff"/>
  <path id="Caminho_508" data-name="Caminho 508" d="M381.56,292a5,5,0,0,0,1.77,8.07c2.69,1.23,5.85.2,8.52-.47,4-1,8-1.89,12.11-2.62a165.15,165.15,0,0,1,27.09-2.52c4.14-.05,8.25.14,12.39.32,3,.12,6.23.36,8.77-1.5,2.9-2.12,3.84-6.26,1-8.84-4-3.65-12.62-1.53-17.24-1.15a386.613,386.613,0,0,0-49.86,7.44c-1.88.4-1.09,3.3.8,2.89q16.27-3.51,32.79-5.64,8.12-1,16.27-1.69c2.56-.21,5.12-.4,7.68-.55,1-.06,2.06-.17,3.08-.14,3.17.07,3.54-.5,1.64,3.33-1.69,3.39-1.15,3-4.08,2.89-1.24,0-2.48-.14-3.72-.2q-3.81-.16-7.62-.17-8.11,0-16.18.78c-4.56.44-9.11,1.06-13.62,1.86-2.82.5-5.62,1.08-8.41,1.72-1.23.29-2.47.59-3.7.9-.59.16-1.19.3-1.78.45q-3.28,1.14-5.59-3c1.34-1.39-.77-3.52-2.12-2.12Z" transform="translate(-125.82 -71)" fill="#6c63ff"/>
  <path id="Caminho_509" data-name="Caminho 509" d="M417.78,334.68c-14.47-.56-30.1,3.35-39.63,15-7.46,9.11-11.71,24.74-3.81,35,8.49,11,27.11,9.06,38.34,4.37,11.88-5,24.88-15.31,28.45-28.21,4.45-16.11-10-28.29-25.05-28.47a1.5,1.5,0,0,0,0,3c8.58.1,17,3.78,21,11.77,4.19,8.42.58,17.26-5,24-8.94,10.73-22.92,18.82-37.16,18.59-8.55-.13-18-3.06-20.65-12.08-2.18-7.31-.52-15.3,3.28-21.78,8.22-14,24.95-18.74,40.29-18.14,1.93.07,1.93-2.93,0-3Z" transform="translate(-125.82 -71)" fill="#6c63ff"/>
  <path id="Caminho_510" data-name="Caminho 510" d="M403.41,356.9a3.9,3.9,0,0,0-5.24,4c.3,3.9,4.6,5,7.83,4.77,2.79-.24,6.05-1.27,5.07-4.76a4.48,4.48,0,0,0-2.44-2.82,5.65,5.65,0,0,0-2.82-.35c-.37,0-3.76,1.24-2.32-.25l-2.36-.31a2.46,2.46,0,0,1,.72,2,1.51,1.51,0,0,0,2.25,1.29,2,2,0,0,1,2.71,2.34,1.51,1.51,0,0,0,2.74,1.16c1-1.8,2.21-5.38.71-7.26-1-1.27-2.93-.89-4.13-.15a14.471,14.471,0,0,0-2.06,1.77c-1.21,1.07-2,1.57-1.55-.48.75-3.73,4.31-6.7,7.56-8.19l-2.2-1.69a31.62,31.62,0,0,1-6.05,11.85l2.56,1.06a6.68,6.68,0,0,1,4.08-6.51H407l.78,1.28c-.29,1.89,2.6,2.7,2.89.79.38-2.47-1.18-5.68-4.07-4.47-3.45,1.44-5.24,5.39-5.17,8.91,0,1.2,1.7,2.13,2.57,1.07a35.26,35.26,0,0,0,6.81-13.19,1.52,1.52,0,0,0-2.21-1.69,16.77,16.77,0,0,0-7.28,6.34c-1.22,2-2.75,5.12-1.51,7.42a3.18,3.18,0,0,0,4.35,1.23,11.7,11.7,0,0,0,2.51-2c.37-.33.78-.9,1.27-1,.44-.3.42-.13-.07.53a5.451,5.451,0,0,1-.87,2.92l2.74,1.15a5,5,0,0,0-7.11-5.73l2.26,1.3a5.45,5.45,0,0,0-1.13-3.53,1.52,1.52,0,0,0-2.35-.31c-1.52,1.59-1.81,4.34.1,5.81,1.43,1.09,2.13,0,3.7-.25,5.33-.69,2.22,1.71.34,1.79a7.09,7.09,0,0,1-2.51-.18q-3.13-1.06-.39-2.73c1.79.73,2.56-2.17.8-2.89Z" transform="translate(-125.82 -71)" fill="#6c63ff"/>
  <path id="Caminho_511" data-name="Caminho 511" d="M401,362.38c1.23,4-3.85,5.32-6.26,6.7a13.94,13.94,0,0,0-4.33,3.79c-2.52,3.38-3.46,7.68-4.29,11.73-.38,1.89,2.51,2.69,2.9.8a34,34,0,0,1,2.53-8.63c1.8-3.58,4.38-4.78,7.74-6.62s5.79-4.69,4.6-8.57c-.56-1.84-3.46-1.05-2.89.8Z" transform="translate(-125.82 -71)" fill="#6c63ff"/>
  <path id="Caminho_512" data-name="Caminho 512" d="M406,360.37a2.9,2.9,0,0,0-2.5,3c0,1.19.79,1.95,1.33,2.9a22.9,22.9,0,0,1,2.9,6.31c.48,2.15.95,6-.17,8-2.07,3.71-5.81,3-9,3-3,0-5.32,1-5.22-3.18.06-2.35,1.7-4.73,3-6.58l-2.74-.36a52.269,52.269,0,0,1,.91,9.26c0,1.39,2.13,2.16,2.79.75a57.931,57.931,0,0,0,3.81-10.54l-2.95-.4.52,7.6a1.51,1.51,0,0,0,2.79.76,3.4,3.4,0,0,0,.75-1.35c.1-.47-.82-3.64-1.19-2.51l2.94.4.21-7.22-3,.4a14.94,14.94,0,0,1,.56,6.3c-.19,1.67,2.62,2.05,3,.4l1.88-9.7-2.74.35a6.63,6.63,0,0,1,.51,4.32c-.22,1.92,2.78,1.9,3,0a10.54,10.54,0,0,0-.92-5.83,1.51,1.51,0,0,0-2.74.36l-1.89,9.7,2.95.4a16.359,16.359,0,0,0-.67-7.09,1.5,1.5,0,0,0-2.94.39l-.21,7.22a1.507,1.507,0,0,0,2.95.4l.16-.49a1.52,1.52,0,0,0-.38-1.46c-3.11-3.38-3.74,2-4.82,3.49l2.8.76-.52-7.6c-.11-1.62-2.51-2.12-2.95-.4a53.763,53.763,0,0,1-3.5,9.83l2.8.76a56.542,56.542,0,0,0-1-10.06c-.26-1.38-2.07-1.32-2.74-.36-2,2.88-5.46,9.17-2.79,12.62,2.33,3,9.66,1.84,12.79,1.65,4.94-.28,6.73-3.41,7.27-8.07a19.759,19.759,0,0,0-.37-6.68c-.27-1.18-3-8.66-3.82-8.51,1.9-.35,1.09-3.25-.8-2.9Z" transform="translate(-125.82 -71)" fill="#6c63ff"/>
  <path id="Caminho_513" data-name="Caminho 513" d="M400.19,367.11,392,377.92l2.59,1.51,6-8.68-2.74-1.16L394.86,381a1.51,1.51,0,0,0,2.74,1.16,52.7,52.7,0,0,1,4.57-6.43l-2.5-1.46a16.33,16.33,0,0,1-3.77,6.93l2.51,1.46a13.4,13.4,0,0,1,1.09-4c.77-1.73-1.67-3.26-2.59-1.52a35.207,35.207,0,0,1-2.89,4.54l2.74.36.61-2.85-2.74-.36.44,2.5a1.51,1.51,0,0,0,2.51.66,29.86,29.86,0,0,0,6-9.05H401a13.47,13.47,0,0,1,1.41,4c.36,1.8,2.75,1.13,2.94-.4a81.3,81.3,0,0,0,.66-10.1h-3v6.29c0,1.63,2.67,2.11,2.95.4a11.461,11.461,0,0,1,1.47-4.3H404.8a6.669,6.669,0,0,1,1,3.4,1.5,1.5,0,1,0,3,0l.38-2h-2.89c.29,1.77,1.39,11.74-2.52,10.57-.66-.16-.85-.12-.57.11l.89-1.9,2.09-4.43-2.8-.76c.18,2.06.37,5-.87,6.76-1,1.43-4.08,2-5.65,1.16a10,10,0,0,1-2.61-2.74l-2.05,2c1.66,1.21,4.35,4.18,6.49,4.35,1.63.13,3-1.22,4.07-2.3a17.43,17.43,0,0,0,4.89-12.83,1.5,1.5,0,1,0-3,0v3.42a1.5,1.5,0,1,0,3,0v-8.39a1.5,1.5,0,1,0-3,0,36,36,0,0,1-.52,6l2.95.4a69.064,69.064,0,0,1-.33-7.19,1.5,1.5,0,0,0-2.94-.4c-.45,1.91-1,3.79-1.53,5.66l2.74-.36-.21-.8c-.14-1.91-3.14-1.92-3,0a5.49,5.49,0,0,0,.62,2.32c.58,1.22,2.39.79,2.74-.36.57-1.88,1.08-3.76,1.53-5.66l-2.95-.4a69.082,69.082,0,0,0,.33,7.19c.15,1.54,2.63,2.2,2.94.4a41.328,41.328,0,0,0,.63-6.84h-3v8.39h3v-3.42h-3A14.42,14.42,0,0,1,401,380.46a12.289,12.289,0,0,1-1.26,1.24c-.71.68-1.36.58-1.93-.31-1.42-.59-2.89-2.11-4.13-3s-2.94.87-2.06,2.05c2.3,3.06,5.73,6.47,10,5,4.49-1.59,5.1-7.67,4.76-11.67-.11-1.33-2.1-2.23-2.79-.75-1,2.11-2,4.21-3,6.33a5.593,5.593,0,0,0-.9,2.64c.33,2.25,3.06,1.88,4.74,1.75,6.51-.49,5.48-9.72,4.73-14.36-.25-1.54-2.49-1.3-2.89,0a8.83,8.83,0,0,0-.49,2.84h3a11.89,11.89,0,0,0-1.41-4.91,1.51,1.51,0,0,0-2.59,0,14.581,14.581,0,0,0-1.78,5l3,.4v-6.29a1.5,1.5,0,1,0-3,0,81.31,81.31,0,0,1-.66,10.1l2.95-.4a17.169,17.169,0,0,0-1.71-4.68,1.51,1.51,0,0,0-2.59,0,27.359,27.359,0,0,1-5.53,8.44l2.51.66-.44-2.5c-.23-1.33-2.11-1.37-2.74-.36a6.58,6.58,0,0,0-.91,5.16c.25,1.42,2.05,1.27,2.74.36a35.1,35.1,0,0,0,2.89-4.53l-2.59-1.52a17.059,17.059,0,0,0-1.4,4.71c-.18,1.32,1.39,2.7,2.51,1.46a20,20,0,0,0,4.54-8.26c.37-1.36-1.51-2.65-2.51-1.46a57.29,57.29,0,0,0-5,7l2.74,1.16,3.05-11.37a1.51,1.51,0,0,0-2.74-1.16l-6,8.69c-1.12,1.61,1.45,3,2.59,1.51l8.16-10.8c1.16-1.54-1.44-3-2.59-1.52Z" transform="translate(-125.82 -71)" fill="#6c63ff"/>
  <path id="Caminho_514" data-name="Caminho 514" d="M527.77,403.2c12-7.34,21.54-18.29,32.14-27.45,11.5-9.93,23.57-19.18,36-27.94,24.14-17,49.49-32.21,74.82-47.38a1.5,1.5,0,0,0-1.51-2.59c-25.33,15.17-50.69,30.35-74.83,47.38-11.39,8-22.51,16.48-33.17,25.48-11.6,9.8-21.93,22-35,29.91-1.65,1-.14,3.6,1.51,2.59Z" transform="translate(-125.82 -71)" fill="#6c63ff"/>
  <path id="Caminho_515" data-name="Caminho 515" d="M709.46,253.85c-13,1.32-27,4.63-35,16-6.91,9.78-6.76,26.84-.27,36.88,7.37,11.41,22.43,11.82,34.13,8.13s23.81-10.16,23.7-24.14c-.06-7.5-2.77-15.31-5.76-22.11-2.58-5.87-7.15-11-14.07-10.35-1.91.18-1.93,3.18,0,3,9.27-.86,12.25,10.15,14.45,17.1,2,6.49,3.85,14.17.71,20.62s-10.71,9.74-17.18,12.1c-7,2.54-14.69,4.09-22,2-14.48-4.05-18.48-22.4-14.31-35.42,4.8-15,21.8-19.41,35.65-20.81,1.9-.19,1.92-3.19,0-3Z" transform="translate(-125.82 -71)" fill="#6c63ff"/>
  <path id="Caminho_516" data-name="Caminho 516" d="M729.46,369.85c-13,1.32-27,4.63-35,16-6.91,9.78-6.76,26.84-.27,36.88,7.37,11.41,22.43,11.82,34.13,8.13s23.81-10.16,23.7-24.14c-.06-7.5-2.77-15.31-5.76-22.11-2.58-5.87-7.15-11-14.07-10.35-1.91.18-1.93,3.18,0,3,9.27-.86,12.25,10.15,14.45,17.1,2,6.49,3.85,14.17.71,20.62s-10.71,9.74-17.18,12.1c-7,2.54-14.69,4.09-22,2-14.48-4.05-18.48-22.4-14.31-35.42,4.8-15,21.8-19.41,35.65-20.81,1.9-.19,1.92-3.19,0-3Z" transform="translate(-125.82 -71)" fill="#6c63ff"/>
  <path id="Caminho_517" data-name="Caminho 517" d="M689.85,283.06l9.47,10.8a1.51,1.51,0,0,0,2.5-.67c2-5.26,1.62-10.71,2.09-16.24a53.468,53.468,0,0,1,4.25-16.57,55.929,55.929,0,0,1,22.38-25.65c1.65-1,.14-3.6-1.51-2.59A58.72,58.72,0,0,0,706.4,257a57.468,57.468,0,0,0-5,15.87c-1,6.49-.09,13.29-2.49,19.52l2.51-.67L692,280.94c-1.28-1.45-3.39.68-2.12,2.12Z" transform="translate(-125.82 -71)" fill="#6c63ff"/>
  <path id="Caminho_518" data-name="Caminho 518" d="M532.6,414.89q77.37-2.36,154.78-1a1.5,1.5,0,0,0,0-3q-77.39-1.38-154.78,1C530.67,411.95,530.66,414.95,532.6,414.89Z" transform="translate(-125.82 -71)" fill="#6c63ff"/>
  <path id="Caminho_519" data-name="Caminho 519" d="M698.16,385.31a309.92,309.92,0,0,1,50.67,25.46c1.64,1,3.15-1.57,1.51-2.59A313.225,313.225,0,0,0,699,382.42c-1.79-.71-2.57,2.19-.79,2.89Z" transform="translate(-125.82 -71)" fill="#6c63ff"/>
  <path id="Caminho_520" data-name="Caminho 520" d="M730.18,371.72a122.5,122.5,0,0,0-29.41,74.53c-.08,1.93,2.92,1.93,3,0a119.14,119.14,0,0,1,28.53-72.41c1.25-1.46-.86-3.59-2.12-2.12Z" transform="translate(-125.82 -71)" fill="#6c63ff"/>
  <path id="Caminho_521" data-name="Caminho 521" d="M330.23,404,442,402.54l12.85-.17c2.31,0,4.62-.08,6.93-.09,3.25,0,5.44,2.7,5.38,6-.15,7-4.55,6.75-10.31,7l-13.89.63L386.4,418.4c-10.13.45-20.27,1-30.4,1.35-9.14.28-26.52-2.7-22.46-16,.56-1.85-2.33-2.64-2.9-.8-2,6.54,1.54,13.18,7.24,16.61,8.09,4.86,18.75,3.21,27.68,2.81L435,419.22l16.86-.75c4.32-.2,10.33.68,14.3-1.33,4.66-2.35,5.48-11.68,2.54-15.61-1.51-2-3.63-2.18-6-2.27-6.22-.24-12.55.17-18.78.25l-34.62.46-79.11,1a1.5,1.5,0,0,0,0,3Z" transform="translate(-125.82 -71)" fill="#6c63ff"/>
  <path id="Caminho_543" data-name="Caminho 543" d="M912.81,682c0,50.24,31.52,90.9,70.47,90.9" transform="translate(-125.82 -71)" fill="#46455b"/>
  <path id="Caminho_544" data-name="Caminho 544" d="M983.28,772.91c0-50.81,35.18-91.92,78.65-91.92" transform="translate(-125.82 -71)" fill="#6c63ff"/>
  <path id="Caminho_545" data-name="Caminho 545" d="M938.35,686.56c0,47.73,20.1,86.35,44.93,86.35" transform="translate(-125.82 -71)" fill="#6c63ff"/>
  <path id="Caminho_546" data-name="Caminho 546" d="M983.28,772.91c0-64.92,40.66-117.46,90.9-117.46" transform="translate(-125.82 -71)" fill="#46455b"/>
  <ellipse id="Elipse_158" data-name="Elipse 158" cx="17.52" cy="2.96" rx="17.52" ry="2.96" transform="translate(836.89 713.35)" fill="#6c63ff" opacity="0.1"/>
  <path id="Caminho_547" data-name="Caminho 547" d="M968.46,773.55s10-.31,13-2.45,15.37-4.71,16.12-1.27,15,17.11,3.73,17.2-26.22-1.76-29.22-3.59S968.46,773.55,968.46,773.55Z" transform="translate(-125.82 -71)" fill="#a8a8a8"/>
  <path id="Caminho_548" data-name="Caminho 548" d="M1001.52,785.83c-11.28.09-26.21-1.76-29.22-3.59-2.29-1.39-3.2-6.4-3.51-8.7h-.33s.63,8.06,3.64,9.89,17.94,3.68,29.22,3.59c3.26,0,4.38-1.19,4.32-2.9C1005.19,785.16,1004,785.81,1001.52,785.83Z" transform="translate(-125.82 -71)" opacity="0.2"/>
  <path id="Caminho_549" data-name="Caminho 549" d="M148.31,711.36c0,40,25.07,72.32,56.06,72.32" transform="translate(-125.82 -71)" fill="#46455b"/>
  <path id="Caminho_550" data-name="Caminho 550" d="M204.37,783.68c0-40.42,28-73.13,62.57-73.13" transform="translate(-125.82 -71)" fill="#6c63ff"/>
  <path id="Caminho_551" data-name="Caminho 551" d="M168.62,715c0,38,16,68.7,35.75,68.7" transform="translate(-125.82 -71)" fill="#6c63ff"/>
  <path id="Caminho_552" data-name="Caminho 552" d="M204.37,783.68c0-51.65,32.35-93.45,72.32-93.45" transform="translate(-125.82 -71)" fill="#46455b"/>
  <ellipse id="Elipse_159" data-name="Elipse 159" cx="13.94" cy="2.36" rx="13.94" ry="2.36" transform="translate(62.18 721.78)" fill="#6c63ff" opacity="0.1"/>
  <path id="Caminho_553" data-name="Caminho 553" d="M192.58,784.19s7.95-.25,10.34-2,12.24-3.75,12.83-1,11.95,13.61,3,13.68-20.86-1.4-23.25-2.85S192.58,784.19,192.58,784.19Z" transform="translate(-125.82 -71)" fill="#a8a8a8"/>
  <path id="Caminho_554" data-name="Caminho 554" d="M218.88,794c-9,.07-20.86-1.4-23.25-2.86-1.82-1.1-2.54-5.09-2.79-6.92h-.26s.5,6.41,2.89,7.87,14.28,2.92,23.25,2.85c2.59,0,3.49-.94,3.44-2.31C221.8,793.43,220.81,793.94,218.88,794Z" transform="translate(-125.82 -71)" opacity="0.2"/>
</svg>
