<svg xmlns="http://www.w3.org/2000/svg" width="210" height="136" viewBox="0 0 210 136">
  <g id="Grupo_21" data-name="Grupo 21" transform="translate(-634 -95)">
    <g id="Elipse_114" data-name="Elipse 114" transform="translate(721 121)" fill="none" stroke="#000068" stroke-width="3">
      <circle cx="18" cy="18" r="18" stroke="none"/>
      <circle cx="18" cy="18" r="16.5" fill="none"/>
    </g>
    <g id="Elipse_116" data-name="Elipse 116" transform="translate(713 138)" fill="none" stroke="#000068" stroke-width="3">
      <circle cx="15.5" cy="15.5" r="15.5" stroke="none"/>
      <circle cx="15.5" cy="15.5" r="14" fill="none"/>
    </g>
    <g id="Elipse_117" data-name="Elipse 117" transform="translate(713 200)" fill="none" stroke="#000068" stroke-width="3">
      <circle cx="15.5" cy="15.5" r="15.5" stroke="none"/>
      <circle cx="15.5" cy="15.5" r="14" fill="none"/>
    </g>
    <g id="Elipse_119" data-name="Elipse 119" transform="translate(797 169)" fill="none" stroke="#000068" stroke-width="3" opacity="0.64">
      <circle cx="23.5" cy="23.5" r="23.5" stroke="none"/>
      <circle cx="23.5" cy="23.5" r="22" fill="none"/>
    </g>
    <g id="Caminho_353" data-name="Caminho 353" transform="translate(634 200)" fill="none" opacity="0.69">
      <path d="M15.5,0A15.5,15.5,0,1,1,0,15.5,15.5,15.5,0,0,1,15.5,0Z" stroke="none"/>
      <path d="M 15.5 3 C 12.16113090515137 3 9.022109985351563 4.300230026245117 6.661169052124023 6.661169052124023 C 4.300230026245117 9.022109985351563 3 12.16113090515137 3 15.5 C 3 18.83887100219727 4.300230026245117 21.97789001464844 6.661169052124023 24.33882904052734 C 9.022109985351563 26.69976997375488 12.16113090515137 28 15.5 28 C 18.83887100219727 28 21.97789001464844 26.69976997375488 24.33882904052734 24.33882904052734 C 26.69976997375488 21.97789001464844 28 18.83887100219727 28 15.5 C 28 12.16113090515137 26.69976997375488 9.022109985351563 24.33882904052734 6.661169052124023 C 21.97789001464844 4.300230026245117 18.83887100219727 3 15.5 3 M 15.5 0 C 24.06040954589844 0 31 6.939590454101563 31 15.5 C 31 24.06040954589844 24.06040954589844 31 15.5 31 C 6.939590454101563 31 0 24.06040954589844 0 15.5 C 0 6.939590454101563 6.939590454101563 0 15.5 0 Z" stroke="none" fill="#a4a4cb"/>
    </g>
    <g id="Elipse_115" data-name="Elipse 115" transform="translate(799 95)" fill="none" stroke="#000068" stroke-width="3">
      <circle cx="15.5" cy="15.5" r="15.5" stroke="none"/>
      <circle cx="15.5" cy="15.5" r="14" fill="none"/>
    </g>
    <line id="Linha_1" data-name="Linha 1" y2="32" transform="translate(728.5 168.5)" fill="none" stroke="#000068" stroke-width="3" stroke-dasharray="10"/>
    <line id="Linha_2" data-name="Linha 2" x2="47" y2="37" transform="translate(753.5 145.5)" fill="none" stroke="#000068" stroke-width="3" opacity="0.68"/>
    <path id="Caminho_352" data-name="Caminho 352" d="M2.744,13.548,49.7,0" transform="translate(752.796 119.5)" fill="none" stroke="#13bb2f" stroke-width="3" stroke-dasharray="10"/>
    <line id="Linha_4" data-name="Linha 4" y1="43" x2="59" transform="translate(659.5 162.5)" fill="none" stroke="#000068" stroke-width="3" opacity="0.16"/>
  </g>
</svg>
