<svg xmlns="http://www.w3.org/2000/svg" xmlns:xlink="http://www.w3.org/1999/xlink" width="932.374" height="646.22" viewBox="0 0 932.374 646.22">
  <defs>
    <linearGradient id="linear-gradient" x1="0.5" y1="1" x2="0.5" gradientUnits="objectBoundingBox">
      <stop offset="0" stop-color="gray" stop-opacity="0.251"/>
      <stop offset="0.535" stop-color="gray" stop-opacity="0.122"/>
      <stop offset="1" stop-color="gray" stop-opacity="0.102"/>
    </linearGradient>
  </defs>
  <g id="undraw_Container_ship_ok1c" transform="translate(0 0)">
    <rect id="Retângulo_47" data-name="Retângulo 47" width="73" height="42" transform="translate(197.688 183.61)" fill="#fff"/>
    <path id="Caminho_355" data-name="Caminho 355" d="M232.429,621.629c7.436-20.076,30.819-30.532,52.212-29.695s41.318,10.5,60.494,20.022,39.032,19.278,60.415,20.327c47.519,2.33,87.509-38.126,134.863-42.717,56.293-5.458,106.251,40.385,162.776,42.273,9.941.332,20.079-.767,29.234-4.657,7.968-3.386,14.911-8.751,22.437-13.031,37.979-21.6,85.483-13.445,127.5-1.468S968,640,1010.71,630.8" transform="translate(-136.812 -124.89)" fill="#4d8af0"/>
    <path id="Caminho_356" data-name="Caminho 356" d="M136.812,660.35c7.436-20.076,30.819-30.532,52.212-29.695s41.318,10.5,60.494,20.022S288.55,669.955,309.933,671c47.519,2.33,87.509-38.126,134.863-42.717,56.293-5.458,106.251,40.385,162.776,42.273,9.941.332,20.079-.767,29.234-4.657,7.968-3.386,14.911-8.751,22.437-13.031,37.979-21.6,85.483-13.445,127.5-1.468s85.638,27.321,128.35,18.12" transform="translate(-136.812 -124.89)" fill="#4d8af0"/>
    <path id="Caminho_357" data-name="Caminho 357" d="M238.751,710.134c7.436-20.076,30.819-30.532,52.211-29.695s41.318,10.5,60.494,20.022,39.032,19.278,60.415,20.327c47.519,2.33,87.509-38.126,134.863-42.717,56.293-5.458,106.251,40.385,162.776,42.273,9.941.332,20.079-.767,29.234-4.657,7.968-3.386,14.911-8.751,22.437-13.031,37.979-21.6,85.483-13.445,127.5-1.468s85.637,27.32,128.349,18.119" transform="translate(-136.812 -124.89)" fill="#4d8af0"/>
    <path id="Caminho_358" data-name="Caminho 358" d="M290.906,759.128c7.436-20.076,30.819-30.532,52.211-29.695s41.318,10.5,60.494,20.022,39.032,19.278,60.415,20.327c47.519,2.33,87.509-38.126,134.863-42.717,56.293-5.458,106.251,40.385,162.776,42.273,9.941.332,20.079-.767,29.234-4.657,7.968-3.386,14.911-8.751,22.437-13.031,37.979-21.6,85.483-13.445,127.5-1.468s85.637,27.32,128.349,18.119" transform="translate(-136.812 -124.89)" fill="#4d8af0"/>
    <g id="Grupo_29" data-name="Grupo 29" opacity="0.5">
      <path id="Caminho_359" data-name="Caminho 359" d="M399.761,238.812l-6.895-1.22a44.53,44.53,0,0,1,.832-5.07c1.17-14.781-9.079-30.335-23.488-34.258l1.844-6.773c13.129,3.574,23.255,14.561,27.1,27.357A48.519,48.519,0,0,1,430.8,195.9l1.388,6.881c-15.1,3.046-27.943,15.89-31.534,30.859A35.465,35.465,0,0,1,399.761,238.812Z" transform="translate(-136.812 -124.89)" fill="url(#linear-gradient)"/>
    </g>
    <path id="Caminho_360" data-name="Caminho 360" d="M399.969,235.376l-5.894-1.043a38.054,38.054,0,0,1,.711-4.334c1-12.635-7.761-25.93-20.078-29.283l1.576-5.789c11.223,3.055,19.878,12.447,23.162,23.384A41.473,41.473,0,0,1,426.5,198.7l1.187,5.882c-12.911,2.6-23.885,13.583-26.955,26.377a30.311,30.311,0,0,1-.764,4.421Z" transform="translate(-118.812 87.11)" fill="#706a6a"/>
    <g id="Grupo_30" data-name="Grupo 30" opacity="0.5">
      <path id="Caminho_361" data-name="Caminho 361" d="M547.271,175.413l-4.447-.787a28.726,28.726,0,0,1,.537-3.27c.755-9.534-5.856-19.567-15.151-22.1l1.189-4.369c8.469,2.305,15,9.393,17.478,17.646a31.3,31.3,0,0,1,20.415-14.8l.9,4.439c-9.743,1.965-18.024,10.25-20.34,19.9a22.884,22.884,0,0,1-.576,3.336Z" transform="translate(-136.812 -124.89)" fill="url(#linear-gradient)"/>
    </g>
    <g id="Grupo_31" data-name="Grupo 31" opacity="0.5">
      <path id="Caminho_362" data-name="Caminho 362" d="M818.271,155.413l-4.447-.787a28.713,28.713,0,0,1,.537-3.27c.755-9.534-5.856-19.567-15.151-22.1l1.189-4.369c8.469,2.305,15,9.393,17.478,17.646a31.3,31.3,0,0,1,20.415-14.8l.9,4.439c-9.743,1.965-18.024,10.25-20.34,19.9A22.867,22.867,0,0,1,818.271,155.413Z" transform="translate(-136.812 -124.89)" fill="url(#linear-gradient)"/>
    </g>
    <path id="Caminho_363" data-name="Caminho 363" d="M547.6,170.069l-2.89-.511a18.652,18.652,0,0,1,.349-2.125c.491-6.2-3.806-12.715-9.845-14.359l.773-2.839A16.856,16.856,0,0,1,547.34,161.7a20.337,20.337,0,0,1,13.266-9.619l.582,2.884A17.712,17.712,0,0,0,547.97,167.9a14.866,14.866,0,0,1-.374,2.168Z" transform="translate(-118.812 87.11)" fill="#706a6a"/>
    <path id="Caminho_364" data-name="Caminho 364" d="M818.6,150.069l-2.89-.511a18.679,18.679,0,0,1,.349-2.125c.491-6.2-3.806-12.715-9.845-14.359l.773-2.839A16.856,16.856,0,0,1,818.34,141.7a20.337,20.337,0,0,1,13.266-9.619l.582,2.884A17.712,17.712,0,0,0,818.97,147.9a14.866,14.866,0,0,1-.374,2.168Z" transform="translate(-118.812 87.11)" fill="#706a6a"/>
    <g id="Grupo_32" data-name="Grupo 32" opacity="0.5">
      <circle id="Elipse_121" data-name="Elipse 121" cx="67" cy="67" r="67" transform="translate(71.375 9.683)" fill="url(#linear-gradient)"/>
    </g>
    <circle id="Elipse_122" data-name="Elipse 122" cx="62" cy="62" r="62" transform="translate(76.375 14.683)" fill="#fdd835"/>
  </g>
</svg>
