<svg xmlns="http://www.w3.org/2000/svg" width="1176.605" height="873.979" viewBox="0 0 1176.605 873.979">
  <g id="undraw_connected_world_wuay" transform="translate(0 0)">
    <path id="Caminho_392" data-name="Caminho 392" d="M1095.66,225.463C962.121,39.632,680.019-35.748,402.58,45.438,255.907,88.36,114.487,174.358,44.4,340.88-80.881,638.554,182.167,733.624,354.172,763.924c83.172,14.651,161.507,39.263,233.089,72.771C716.045,896.979,944,950.4,1115.89,699.286,1240.48,517.28,1184.62,349.244,1095.66,225.463Z" transform="translate(-11.697 -13.011)" fill="#f2f2f2"/>
    <path id="Caminho_393" data-name="Caminho 393" d="M321.429,262.228a34.386,34.386,0,0,0-2.248-8.6,3.9,3.9,0,0,0-1.98-2.439,4.08,4.08,0,0,0-1.965-.022l-10.087,1.544a3.867,3.867,0,0,0-2.3.894c-1.314,1.382-.02,3.607-.06,5.513-.045,2.143-1.95,3.883-4.015,4.459a15.177,15.177,0,0,1-6.38-.079L278.288,261.3a23.256,23.256,0,0,0,10.671-7.121c1.856-2.2,2.844-6.3.161-7.345a6.586,6.586,0,0,0-2.45-.2c-6.391.05-11.419-5.286-17.4-7.533a19.241,19.241,0,0,0-21.655,6.455l7.514.362a3.335,3.335,0,0,1,2,.534c1.647,1.353-.4,3.952-.169,6.07.3,2.752,3.956,3.34,6.711,3.619s6.25,2.517,4.925,4.948c-13.847,4.769-27.937-9.323-42.479-7.588-3.68.439-7.156,1.885-10.749,2.794-21.951,5.554-44.644-9.264-67.068-6.126a85.163,85.163,0,0,0-14.64,3.861c-3.052,1-6.235,2.085-8.453,4.409s-3.061,6.3-.961,8.729a49.126,49.126,0,0,1-17.216-1.636,9.645,9.645,0,0,1,4.959,8.5,102.147,102.147,0,0,0-26.167,7.979,44.074,44.074,0,0,0,5.416,7.215l-11.445,7.353c3.867.974,5.866,6.247,3.617,9.54,4.009-1.784,6.494-6.4,10.782-7.333,2.809-.613,5.667.536,8.331,1.616s5.593,2.126,8.352,1.316,4.793-4.387,3.04-6.666a142.722,142.722,0,0,1,36.253-5.664,4.546,4.546,0,0,1,2.746.521c1.6,1.109,1.178,3.5,1.092,5.447s1.429,4.5,3.165,3.621c-2.043,1.772-.3,5.108,1.664,6.971s4.323,4.434,3.123,6.858c-.313.633-.845,1.139-1.146,1.777-.89,1.884.523,4.081,2.189,5.332s3.707,2.126,4.864,3.858.632,4.765-1.438,5.007l-5.882-7.469a15.314,15.314,0,0,0-3.974,7.53c6.238,5.1,7.176,15.478,1.954,21.613-2.669,3.135-6.464,5.04-9.776,7.486s-6.377,5.928-6.369,10.045c.014,7.113-.567,13.721,2.1,20.316a312.96,312.96,0,0,0,16.99,35.447c1.681,3.006,3.853,6.3,7.258,6.819q-6.455-15.714-11.622-31.917c2.243.009,4.836.187,6.151,2,1.089,1.505.855,3.551,1.193,5.378a16.659,16.659,0,0,0,2.124,4.994l20.55,36.6c1.7,3.034,3.658,6.292,6.913,7.521,2.082.786,4.49.638,6.406,1.769,1.5.887,2.513,2.46,4.044,3.3,4.329,2.361,10.349-2.167,14.394.652,1.157.806,1.893,2.087,2.958,3.01,3.736,3.236,9.865,1.071,14.179,3.485,2.78,1.556,4.22,4.667,5.7,7.486,3.714,7.062,9.723,13.981,17.683,14.543,2.5.177,5.054-.3,7.5.259s4.85,2.689,4.457,5.164c-.673,4.244,1.424,8.891.861,13.151-1.026,7.759-12.032,11.169-12.978,18.939-.207,1.7.117,3.457-.288,5.122-.5,2.041-2.029,3.7-2.574,5.731-1.032,3.844,1.722,7.67,4.748,10.256s6.635,4.816,8.289,8.437c1.748,3.827.89,8.289,1.458,12.457,1.241,9.1,9.1,15.847,17.191,20.2,2.465,1.325,5.111,2.608,6.706,4.908,2.082,3,1.875,6.957,2.57,10.543,1.7,8.782,9.1,16.017,9.305,24.96.149,6.356-3.384,12.122-5.495,18.12a42.257,42.257,0,0,0,3.451,35.046c1.579,2.666,3.467,5.18,4.584,8.07,1.993,5.158,1.346,11.021,3.184,16.235,2.43,6.895,9.106,12.589,8.467,19.872,3.031,6.294,9.724,9.387,16.454,11.26l12.062,3.357c2.309.643,4.723,1.291,7.074.825s4.6-2.418,4.535-4.815c-5.915-1.334-12.019-2.752-16.9-6.357s-8.216-10.023-6.366-15.8c.858-2.677,2.683-5.769.948-7.982-.993-1.267-2.81-1.6-3.931-2.753-1.748-1.8-1.147-4.831.109-7s3.073-4.116,3.579-6.576a6.861,6.861,0,0,0-3.216-7.138,17.054,17.054,0,0,0,5.97-3.831c1.57-1.793,2.3-4.557,1.06-6.6,3.668.465,8,.693,10.4-2.113,1.923-2.24,1.79-5.59,1.031-8.442s-2.044-5.624-2.084-8.575a156.276,156.276,0,0,0,25.353-.86,16.439,16.439,0,0,0-7.708-9.654c3.811-.645,7.282-5.207,8.486-8.879s.9-7.673.153-11.465a6.153,6.153,0,0,1-.114-3c.429-1.367,1.772-2.2,3.015-2.916l18.914-10.863a11.017,11.017,0,0,0,3.025-2.233c1.982-2.328,1.688-5.842.673-8.725s-2.64-5.6-3.031-8.627c-1.169-9.068,8.538-15.573,11.813-24.109,1.286-3.35,1.548-6.991,1.8-10.57.267-3.844.287-8.31-2.665-10.787-2.829-2.375-7.251-1.845-10.211-4.054-2.714-2.025-3.651-5.958-6.616-7.594-2.693-1.485-6.07-.541-9.065-1.239-5.274-1.23-8.592-7.308-13.978-7.871-3.039-.318-6.478,1.168-8.969-.6-2.195-1.559-2.283-4.694-2.7-7.353a20.536,20.536,0,0,0-16.575-16.628c-3.133-.5-6.544-.312-9.209-2.034-2.7-1.744-3.937-5.008-6.057-7.422-3.417-3.891-8.8-5.274-13.84-6.459l-20.505-4.821c-3.64-.856-8.332-1.31-10.286,1.879a14.736,14.736,0,0,0-1.217,3.827,11.851,11.851,0,0,1-11.144,8.388,13.179,13.179,0,0,0-7.772-6.013c-2.079-.58-4.3-.644-6.288-1.5a8.833,8.833,0,0,1-3.833-12.253,11,11,0,0,0-1.879-13.225c-3.487-3.131-8.531-3.887-13.207-3.574-1.225-2.672.823-5.687,3.03-7.629s4.886-3.851,5.366-6.751c.756-4.561-5.064-8.026-9.483-6.666s-7.24,5.652-9.1,9.883c-1.07,2.428-1.979,4.984-3.667,7.031s-4.4,3.513-6.975,2.856c-3.639-.93-5.044-5.253-5.849-8.922-1.081-4.922-2.167-9.912-1.941-14.946s1.923-10.2,5.635-13.61c6.049-5.553,15.328-5.009,23.491-4.123-1.929-2.173-1.452-5.835.612-7.881a8.96,8.96,0,0,1,8.121-2,11.191,11.191,0,0,1,6.291,3.761c2.32,2.828,2.979,6.647,4.733,9.857s5.7,5.948,8.923,4.226c2.787-1.488,3.23-5.353,2.536-8.435s-2.167-6.08-1.916-9.229c.479-6.01,6.709-9.627,12.206-12.1s11.792-5.8,12.663-11.769a10.731,10.731,0,0,1,.652-3.42,6.709,6.709,0,0,1,2.461-2.315c16.044-10.6,32.355-21.335,50.692-27.129.954-.3,1.066.034,2.038-.2,1.361-.786.459-2.962-.846-3.838s-3.048-1.549-3.379-3.085c-.243-1.129.422-2.238.6-3.381.425-2.807-2.933-5.4-5.541-4.276-1.473-1.951,1.442-4.217,3.8-4.866a103.148,103.148,0,0,1,21.67-3.54,3.9,3.9,0,0,1,2.466.419c1.231.853,1.074,2.808.2,4.025s-2.229,1.981-3.316,3.011a9.053,9.053,0,0,0-2.348,9.105c3.826,1.946,7.986,3.95,12.223,3.264s8-5.447,6.007-9.249c-1.855-3.541-7.426-4.34-8.384-8.221-1.122-4.544,5.31-8.585,3.862-13.035-.635-1.949-2.577-3.1-4.068-4.5a12.221,12.221,0,0,1-2.674-13.552,15.418,15.418,0,0,1-13.523-4.232c-3.234-3.264-5.815-8.414-10.408-8.267-4.215.134-7.845,5.051-11.786,3.551-.97-.369-1.992-1.12-2.931-.68a2.422,2.422,0,0,0-1.093,1.815c-1,4.788.721,10.244-1.888,14.382-2.84,4.5-9.409,5.127-12.852,9.187-1.869,2.2-2.593,5.174-4.311,7.5s-5.364,3.8-7.425,1.776a10.235,10.235,0,0,0-2.78-12.445,27.309,27.309,0,0,0-6.141-2.987,36.421,36.421,0,0,1-6.861-3.824,6.758,6.758,0,0,1-2.519-2.695,6.141,6.141,0,0,1,.172-4.262,17.426,17.426,0,0,1,13.867-11.494c2.745-.373,5.94-.242,7.756-2.333.961-1.107,1.465-2.78,2.861-3.229a4.22,4.22,0,0,1,2.641.325l10.245,3.606a7.191,7.191,0,0,0,3.65.6,2.474,2.474,0,0,0,2.14-2.6c-.327-1.7-2.945-2.518-2.707-4.234a2.827,2.827,0,0,1,.857-1.441,36.629,36.629,0,0,1,29.051-11.472c1.293,2.124-.752,4.639-2.454,6.452s-3.069,5.052-1.011,6.448a5.643,5.643,0,0,0,2.728.614,23.818,23.818,0,0,1,7.261,2.2q5.311,2.311,10.417,5.057c-.3-2.245-.588-4.609.263-6.708s3.269-3.745,5.381-2.928c2.036.788,3.079,3.483,5.248,3.73,2.893.329,4.034-3.944,2.826-6.593s-3.6-4.867-3.8-7.772c-.135-1.96.611-4.39-.954-5.576a4.261,4.261,0,0,0-1.847-.648L339.705,245.5c-2.321-.427-5.674-.1-5.777,2.258-.057,1.316,1.118,2.618.6,3.828-.556,1.291-2.381,1.173-3.711,1.63-2.063.709-3.1,3.158-2.9,5.331a14.834,14.834,0,0,0,2.448,6.008C327.82,263.487,323.971,263.291,321.429,262.228Z" transform="translate(-11.697 -13.011)" fill="#3f3d56"/>
    <path id="Caminho_394" data-name="Caminho 394" d="M290.244,229.051a12.656,12.656,0,0,0-13.9,4.164c-.644.847-1.184,2.015-.645,2.933.772,1.315,2.741.8,4.192.325a10.549,10.549,0,0,1,6.621-.158c1.363.468,2.581,1.295,3.95,1.745a3.978,3.978,0,0,0,4.056-.593c.939-.958,1-2.447,1-3.788a3.047,3.047,0,0,0-.776-2.5,3.981,3.981,0,0,0-1.8-.531,6.185,6.185,0,0,1-3.619-2.115" transform="translate(-11.697 -13.011)" fill="#3f3d56"/>
    <path id="Caminho_395" data-name="Caminho 395" d="M304.337,225.127a3.22,3.22,0,0,0-3.112,4.534,13.05,13.05,0,0,0,5.2.339,4.447,4.447,0,0,0,3.637-3.334,8.372,8.372,0,0,1-5.928-1.132" transform="translate(-11.697 -13.011)" fill="#3f3d56"/>
    <path id="Caminho_396" data-name="Caminho 396" d="M351.62,218.574a59.852,59.852,0,0,0-13.342,4.532,10.024,10.024,0,0,1,6.4,10.068,5.243,5.243,0,0,0,.061,2.489c.49,1.188,1.91,1.634,3.158,1.939a20.822,20.822,0,0,0,6.927.884,7.056,7.056,0,0,0,5.734-3.5,24.977,24.977,0,0,1,1.192-2.819c2.992-4.557,11.881.953,15.094-3.451,1.132-1.552,1.028-3.887,2.5-5.116a5.624,5.624,0,0,1,2.574-.982,180.724,180.724,0,0,1,19.548-2.784c3.109-.271,7.162-1.387,7.188-4.508a54.149,54.149,0,0,0-34.541,4.647c-3.85,1.929-8.943,5.985-12.652,3.429-1.389-.957-1.32-3.535-3.231-4.612C356.281,217.686,353.694,218.133,351.62,218.574Z" transform="translate(-11.697 -13.011)" fill="#3f3d56"/>
    <path id="Caminho_397" data-name="Caminho 397" d="M389.919,225.736l5.5,1.056a7.124,7.124,0,0,0-7.413,7.72c5.148,1.72,10.761.046,16.184.275s11.733,4.1,10.807,9.451c-.28,1.617-1.214,3.233-.728,4.8.34,1.1,1.31,1.878,1.856,2.89,1.14,2.109.229,4.776-1.21,6.693s-3.374,3.446-4.637,5.483c-3.142,5.067-1.357,11.617.515,17.277a15.231,15.231,0,0,0,2.929,5.849c2.773,2.948,7.292,3.2,11.339,3.264,2.945.043,6.32-.1,8.182-2.385,2.432-2.979.731-7.628,2.332-11.125,1.454-3.176,5.159-4.538,8.515-5.5,6.149-1.77,12.416-3.275,18.229-5.949,7.219-3.32,13.965-8.495,21.9-8.922,2.226-.12,4.507.143,6.651-.467s4.181-2.464,4.019-4.687c-.139-1.9-1.746-3.294-3-4.726s-2.242-3.634-1.088-5.149l20.8-3.884c-1.474-4.017-2.623-9.309.765-11.924,1.222-.944,2.859-1.321,3.9-2.461,1.774-1.944.882-5.293-1.166-6.946s-4.816-2.037-7.438-2.255c-9.119-.757-18.29-.257-27.427.244l-53.58,2.937c-3.6.2-7.746-.1-11.044,1.123-2.792,1.038-4.776,2.945-7.969,3.614C401.739,223.264,395.252,222.427,389.919,225.736Z" transform="translate(-11.697 -13.011)" fill="#3f3d56"/>
    <path id="Caminho_398" data-name="Caminho 398" d="M488.4,269.189a2.212,2.212,0,0,0-1.6.363,2.02,2.02,0,0,0-.521,1.234,8.149,8.149,0,0,0,1.184,5.832,5.711,5.711,0,0,0,5.228,2.507c2.475-.316,4.3-2.427,6.575-3.458,3.507-1.587,18.4-4.061,8.1-9.627-3.551-1.918-5.845-.225-8.644,1.039a19.669,19.669,0,0,1-10.321,2.111Z" transform="translate(-11.697 -13.011)" fill="#3f3d56"/>
    <path id="Caminho_399" data-name="Caminho 399" d="M578.653,222.593a5.883,5.883,0,0,0-2.862,2.492,2.514,2.514,0,0,0,.943,3.335,3.752,3.752,0,0,0,1.4.223l4.892.146c2.078.062,4.674.5,5.233,2.508.415,1.487-.513,3.4.606,4.461a3.155,3.155,0,0,0,1.664.649,11.341,11.341,0,0,0,4.929.159c3.56-.955,1.689-3.127,2.81-5.062,1.715-2.96,1.418-1.168,4.441-2.864,2.232-1.253,5.116-3.525,3.253-6.718C602.727,216.368,583.434,220.208,578.653,222.593Z" transform="translate(-11.697 -13.011)" fill="#3f3d56"/>
    <path id="Caminho_400" data-name="Caminho 400" d="M675.212,219.8l-2.841.379c-6.406.855-12.848,1.718-19.018,3.641a31.653,31.653,0,0,0,8.329,2.044,25.584,25.584,0,0,1,4.665.663c2.725.811,5.471,2.906,8.1,1.833,1.632-.665,2.165-2.365,3.517-3.266.934-.622,4.475-1.629,4.871-2.257C686.04,217.764,677.672,219.474,675.212,219.8Z" transform="translate(-11.697 -13.011)" fill="#3f3d56"/>
    <path id="Caminho_401" data-name="Caminho 401" d="M687.686,232.713A53.275,53.275,0,0,0,677.2,240.39c-1.335,1.255-2.7,2.815-2.577,4.643.161,2.429,2.749,3.839,4.991,4.788l9.081,3.845c1.1-1.553.093-3.7-1.045-5.222s-2.492-3.291-1.989-5.128c.574-2.1,3.129-2.81,5.271-3.171,3.491-.588,12.907-.541,11.776-6.167C701.378,227.35,691.19,230.754,687.686,232.713Z" transform="translate(-11.697 -13.011)" fill="#3f3d56"/>
    <path id="Caminho_402" data-name="Caminho 402" d="M685.86,607.84c-.865,2.5-.947,5.451.549,7.637,1.678,2.452,5.036,3.366,7.942,2.744a14.307,14.307,0,0,0,7.374-4.741,25.394,25.394,0,0,0,4.241-6.5,50.771,50.771,0,0,0,3.144-11.5l2.82-14.8c.63-3.309.606-13.452-5.475-10.147-1.661.9-5.508,8.031-7.249,10.053-3.138,3.643-3.553,7.178-5.2,11.592C691.931,597.7,687.773,602.3,685.86,607.84Z" transform="translate(-11.697 -13.011)" fill="#3f3d56"/>
    <path id="Caminho_403" data-name="Caminho 403" d="M1007.04,683.6a44.331,44.331,0,0,1-5.778-2.751,48.708,48.708,0,0,0-2.929,15.965l13.616-7.7c2.048-1.159,4.37-2.769,4.326-5.122a1.62,1.62,0,0,0-.753-1.474,1.835,1.835,0,0,0-.954-.112c-2.019.168-3.86,1.162-5.765,1.852s-4.132,1.056-5.879.031" transform="translate(-11.697 -13.011)" fill="#3f3d56"/>
    <path id="Caminho_404" data-name="Caminho 404" d="M1078.87,688.172a29.479,29.479,0,0,0-4.366,1.567c-3.125,1.59-5.25,4.609-8.062,6.7-2.691,2-5.93,3.1-9.109,4.174-.935.827-.506,2.492.51,3.218a6.315,6.315,0,0,0,3.6.808c3.3.073,6.784.1,9.677-1.491a30.529,30.529,0,0,0,4.556-3.616c3.383-2.823,7.446-4.685,11.468-6.485a13.16,13.16,0,0,0,4-2.39c2.527-2.49,2.7-6.331-.939-7.178C1087.25,682.8,1081.67,687.265,1078.87,688.172Z" transform="translate(-11.697 -13.011)" fill="#3f3d56"/>
    <path id="Caminho_405" data-name="Caminho 405" d="M1110.6,667.441a11.358,11.358,0,0,0-3.475-9.307c-.037,3.428-.141,7.079-2.069,9.914-1.374,2.02-3.527,3.384-5.032,5.307s-2.173,4.973-.408,6.661a6.615,6.615,0,0,0,3.92,1.35c3.514.414,7.581.644,10.045-1.894,1.345-1.386,2-3.438,3.64-4.456a4.428,4.428,0,0,0,1.6-1.143c.677-1.077-.4-2.5-1.61-2.884s-2.547-.206-3.764-.574-2.335-1.738-1.71-2.846" transform="translate(-11.697 -13.011)" fill="#3f3d56"/>
    <path id="Caminho_406" data-name="Caminho 406" d="M1054.2,541.77a15.793,15.793,0,0,1-5.636.332c-3.128-.575-5.563-2.933-8.088-4.866a35.677,35.677,0,0,0-20.846-7.283c-6.863-.13-13.789,1.73-20.529.433.44,2.449,2.536,4.286,4.772,5.378s4.7,1.641,6.951,2.711a16.6,16.6,0,0,1,8.039,8.363c.724,1.689,1.179,3.528,2.275,5,2.241,3.015,6.488,3.677,10.236,3.43,4.887-.321,9.991-1.727,14.537.094,3.478,1.393,5.967,4.437,8.871,6.8s6.994,4.124,10.329,2.416a17.075,17.075,0,0,1-11.814-16.43c3.271.3,12.69.184,12.183-5.373C1065.05,538.072,1057.01,541.262,1054.2,541.77Z" transform="translate(-11.697 -13.011)" fill="#3f3d56"/>
    <path id="Caminho_407" data-name="Caminho 407" d="M1011.42,580.087c.581-3.185,3.757-6,2.767-9.08-.684-2.132-3.156-3.184-5.394-3.237s-4.437.614-6.675.677a32.542,32.542,0,0,0-4.371.062c-4.442.73-7.181,5.387-11.367,7.042-2.546,1.007-5.406.814-8.053,1.51-6.01,1.58-9.813,7.259-14.014,11.838a50.011,50.011,0,0,1-25.384,14.8c-3.417.791-7.09,1.3-9.807,3.517-3.6,2.939-4.482,7.977-5.282,12.552a207.327,207.327,0,0,1-10.093,37.051l14.27,1.822c2.713.346,5.524.685,8.139-.118a23.629,23.629,0,0,0,5.353-2.852,53.443,53.443,0,0,1,20.879-7.537c3.737-.513,7.655-.607,11.162.782s6.516,4.539,6.809,8.3a8.767,8.767,0,0,1,8.762,2.131,15.23,15.23,0,0,1,4.183,8.351c.376,1.952.752,4.292,2.564,5.111,1.478.668,3.173-.051,4.79-.181,5.487-.439,10.039,5.958,15.432,4.857,5.784-1.181,7.2-9.843,12.846-11.578,3.241-1,7.786.215,9.338-2.8,1.368-2.657-1.361-5.723-1.08-8.7.347-3.663,4.667-5.218,8-6.781,11.484-5.389,16.933-20.845,11.369-32.245-3.3-6.754-9.785-12.071-10.983-19.491-.922-5.709,1.329-12.366-2.311-16.859-1.852-2.286-4.987-3.548-6.088-6.275-.693-1.717-.415-3.665-.788-5.479s-1.956-3.711-3.747-3.241c-5.2,1.365-6.858,17.425-9.641,21.327C1018.77,591.3,1010.08,587.4,1011.42,580.087Z" transform="translate(-11.697 -13.011)" fill="#3f3d56"/>
    <path id="Caminho_408" data-name="Caminho 408" d="M915.322,547.838c-1.777-.5-3.717-.989-5.419-.277s-2.7,3.211-1.33,4.451c10.688-.416,21.442-.83,32.04.622,12.21,1.672,24.294,5.815,36.558,4.6a186.059,186.059,0,0,0-21.326-4.949l-12.006-2.293a92.832,92.832,0,0,0-9.749-1.506C927.241,547.916,922.057,549.726,915.322,547.838Z" transform="translate(-11.697 -13.011)" fill="#3f3d56"/>
    <path id="Caminho_409" data-name="Caminho 409" d="M926.023,510.612c-.887-.074-1.986-.138-2.445.625-.439.729.063,1.692-.172,2.509-.322,1.117-1.785,1.4-2.937,1.25s-2.4-.516-3.419.039a2.9,2.9,0,0,0-1.12,3.292,8.475,8.475,0,0,0,1.976,3.15,32.186,32.186,0,0,0,5.128,5.143c3.674,2.712,8.65,4.018,10.964,7.955a5.279,5.279,0,0,0,1.464,1.971c1.111.7,2.559.168,3.755-.378l4.192-1.915a4.762,4.762,0,0,0,1.96-1.333c.958-1.3.37-3.147-.434-4.547s-1.833-2.849-1.66-4.454c.308-2.862,3.987-3.956,5.5-6.4,1.525-2.468.532-5.648.708-8.544.206-3.387,2.334-7.792-1.09-10.323-2.91-2.151-5.691-.163-7.78,2.211C936.205,505.866,934.122,511.289,926.023,510.612Z" transform="translate(-11.697 -13.011)" fill="#3f3d56"/>
    <path id="Caminho_410" data-name="Caminho 410" d="M951.468,460.009c1.431,2.74,4.415,4.376,5.975,7.044,1.692,2.893,1.5,6.63,3.334,9.434,1.883,2.877,5.672,4.4,6.728,7.675,1.153,3.572-1.463,7.913.622,11.034a4.632,4.632,0,0,0,6.794.624,4.984,4.984,0,0,0-.206-6.954c-1.234-1.125-3.007-1.612-4.038-2.927a6.14,6.14,0,0,1-1.046-2.546,16.67,16.67,0,0,1,.262-7.989,3.555,3.555,0,0,0,.2-2.09c-.464-1.349-2.29-1.444-3.572-2.07-2.911-1.421-2.841-5.53-2.332-8.729-.339,2.13-7.926-1.493-8.72-2.7-1.578-2.4-.719-7.02-1.032-9.669C951.032,451.791,949.718,456.659,951.468,460.009Z" transform="translate(-11.697 -13.011)" fill="#3f3d56"/>
    <path id="Caminho_411" data-name="Caminho 411" d="M875.031,502.171c-1.4-1.568-3.51-3.208-5.387-2.262-1.432.721-1.826,2.7-1.265,4.205a9.256,9.256,0,0,0,3.055,3.642c3.913,3.227,8.126,6.139,11.539,9.89,6.108,6.713,9.344,15.77,15.987,21.954a8.967,8.967,0,0,0,5.034,2.724c1.935.18,4.109-1.059,4.331-2.99.183-1.591-.926-3.014-2.009-4.193-2.581-2.807-5.406-5.391-7.842-8.323a7,7,0,0,1-2-4.186c-.012-1.579,1.428-3.232,2.958-2.841-1.861-.476-3.241-3.576-5.972-4.159-2.282-.487-2.835.926-5.551-.239C882.724,513.172,878.659,506.233,875.031,502.171Z" transform="translate(-11.697 -13.011)" fill="#3f3d56"/>
    <path id="Caminho_412" data-name="Caminho 412" d="M996.764,349.525a42.889,42.889,0,0,1-4.377-1.563c-3.847-1.155-8.936,1.673-8.423,5.656.341,2.647,2.8,4.431,4.164,6.727,2.017,3.4,1.479,7.722.419,11.535a9.018,9.018,0,0,1-1.455,3.282,11.116,11.116,0,0,1-3.448,2.479,46.1,46.1,0,0,0-13.49,11.46,3.3,3.3,0,0,0-.815,1.536c-.184,1.345,1.168,2.325,1.933,3.446,1.7,2.492.471,5.845.638,8.855a2.5,2.5,0,0,0,1.055,2.2c1.023.52,2.236-.363,2.791-1.368,1.841-3.335.454-8.687,3.907-10.3.653-.3,1.445-.432,1.881-1.006.691-.91.024-2.258.375-3.346.526-1.633,2.76-1.707,4.475-1.634a25.4,25.4,0,0,0,8.724-1.161,5.807,5.807,0,0,0,2.888-1.672c1.032-1.288.941-3.12.735-4.758a64.491,64.491,0,0,0-7.62-23.25c3.033.387,6.333.723,8.95-.858,1.466-.885,3.223-3.532,2.5-5.334C1001.42,347.6,999.341,350,996.764,349.525Z" transform="translate(-11.697 -13.011)" fill="#3f3d56"/>
    <path id="Caminho_413" data-name="Caminho 413" d="M607.915,394.431c.363,1.947.72,4,.082,5.871s-2.645,3.441-4.54,2.867c-1.471-.446-2.32-1.925-3.365-3.052-5.808-6.27-18.912-2.64-22.5-10.4-1.464-3.166-.469-6.959-1.468-10.3a9.169,9.169,0,0,0-9.285-6.308,19.079,19.079,0,0,0-5.343,1.595,134.727,134.727,0,0,1-35.4,8.854,29.087,29.087,0,0,0-6.8,1.238c-4.988,1.808-8.4,6.432-10.821,11.151s-4.216,9.827-7.467,14.019c-3.417,4.406-8.206,7.491-12.673,10.828a12.93,12.93,0,0,0-4.181,4.382c-.968,1.988-.914,4.3-.839,6.511l.913,26.844c.117,3.453.265,7.029,1.81,10.119,1.93,3.858,5.742,6.386,8.386,9.794A19.183,19.183,0,0,1,498.4,490.7c-.056,1.777-.233,3.879,1.151,4.995a5.061,5.061,0,0,0,2.83.814l36.312,2.972c6.387.523,13.466,1.382,17.637,6.249,1.968,2.3,3.549,5.6,6.564,5.846,1.293.106,2.551-.425,3.845-.528,3.263-.258,6.13,2.218,7.939,4.946a21.944,21.944,0,0,1,3.524,14.081c-.3,3.112-1.261,6.137-1.469,9.256C575.94,551.195,586,561.505,586.2,573.4c.115,7-3.206,13.531-6.444,19.733,5.225,7.916.947,18.457,3.027,27.711,1.974,8.78,9.294,15.653,11.118,24.465.835,4.034.883,9,4.441,11.076a10.123,10.123,0,0,0,5.025,1.006,66.242,66.242,0,0,0,30.165-6.867c4.4-2.183,8.957-5.441,9.725-10.291.62-3.911-1.364-8.286.655-11.693,2.379-4.015,8.473-3.7,11.974-6.784,5.679-5.008,1.251-14.56,3.551-21.773,2.068-6.484,9.187-9.929,12.716-15.748a27.982,27.982,0,0,0,2.955-8.009,114.243,114.243,0,0,0,3.006-20.426,122.451,122.451,0,0,1,.924-12.511c3.8-23.638,27.173-39.466,34.76-62.174.725-2.169,1.065-5.057-.864-6.284a5.525,5.525,0,0,0-3.674-.385l-16.739,2.11c-2.079.262-4.283.507-6.192-.356s-3.278-3.279-2.265-5.114c2.843-5.15-3.005-11.657-5.6-16.935a249.894,249.894,0,0,0-24.885-40.357,4.1,4.1,0,0,1-1.091-2.369l4.751.158c-1.6-5.754-4.25-12.051-9.841-14.156-3.15-1.186-6.639-.776-10-.592C627.764,397.358,617.443,395.9,607.915,394.431Z" transform="translate(-11.697 -13.011)" fill="#3f3d56"/>
    <path id="Caminho_414" data-name="Caminho 414" d="M637.4,264.755c2.519,2.675,5.342,5.512,8.987,5.978,6.438.824,11.067-5.834,14.014-11.617a5.676,5.676,0,0,0,5.923,5.251,11.693,11.693,0,0,0,4.455-1.742,87.765,87.765,0,0,1,41.579-10.749,4.49,4.49,0,0,1,3.429-4.936c2.955-.586,5.618,1.969,7.043,4.624s2.315,5.731,4.58,7.718,6.65,1.9,7.545-.977c.859-2.762-2.019-5.118-4.409-6.746s-4.91-4.642-3.3-7.046c12.213-2.7,24.5-5.417,37-5.955a15.494,15.494,0,0,0,6.228-1.073c1.906-.935,3.421-3.058,2.908-5.119a14.1,14.1,0,0,1-14.718-5.552c17.341-1.431,35.785-2.651,51.153,5.509,1.844,3.959-7.555,7.253-5.04,10.824.8,1.139,2.409,1.272,3.8,1.3,10.68.2,21.421.393,31.979-1.22,3.859-.589,7.756-1.421,11.63-.943,6.453.8,11.972,5.1,18.32,6.505,2.584.571,5.481.591,7.659-.912s3.114-4.925,1.329-6.878c5.977-5.858,15.9-4.406,23.783-1.6s15.356,7.327,23.7,7.953c5.985.448,12.053-1.162,17.966-.138,3.716.643,7.175,2.3,10.807,3.312,6.869,1.921,14.136,1.515,21.268,1.608a149.022,149.022,0,0,1,53.106,10.553,15.789,15.789,0,0,1,5.9,3.488c1.573,1.685,2.376,4.3,1.318,6.351l-17.473-2.553c1.646,3.241,5.905,3.793,9.364,4.911s7.045,4.938,4.966,7.92c-3.748-1.193-7.144,2.554-9.037,6s-4.2,7.576-8.127,7.786c-3.517.188-7.77-2.806-10.062-.133a68.625,68.625,0,0,1,8.086,12.927c2.265,4.718,3.878,10.663.817,14.908a3.864,3.864,0,0,1-2.066,1.6c-2.5.633-4.124-2.425-5.917-4.279-2.259-2.336-5.676-3-8.735-4.093s-6.282-3.25-6.521-6.491c-.149-2.016.916-3.891,1.7-5.754a22.17,22.17,0,0,0,1.685-9.944c-.172-2.735-.939-5.581-2.9-7.492s-5.356-2.517-7.465-.767c-.984.817-1.773,2.123-3.05,2.172-2.258.086-3.991-3.85-5.808-2.506a6.173,6.173,0,0,1-.839,4.128c-5.421,4.714-13.748,2.72-20.736,4.385a38.921,38.921,0,0,0-9.461,4.132,6.088,6.088,0,0,0-2.7,2.27c-.872,1.7.089,3.866,1.627,4.993a12.917,12.917,0,0,0,5.365,1.831c8.519,1.613,17.163,4.111,23.889,9.583s11.137,14.518,9.009,22.924l-16.8-16.054q.957,10.111,1.086,20.277a9.116,9.116,0,0,1-.533,3.9c-1.2,2.645-4.444,3.536-7.289,4.12a5.709,5.709,0,0,0-4.383,7.315c1.011,3.294,3.531,5.863,5.838,8.422s4.578,5.468,4.88,8.9-2.288,7.3-5.725,7.063c-2.606-.181-4.539-2.514-5.651-4.878s-1.773-5-3.443-7.006c-5.055-6.08-16.409-3.475-20.937-9.956a10.241,10.241,0,0,0-2.118,9.746c2.107-1.319,4.991-.093,6.574,1.823s2.33,4.373,3.573,6.525c1.677,2.9,4.347,5.479,4.581,8.825a28.851,28.851,0,0,0,.064,3.8c.416,2.027,2.129,3.483,3.317,5.177,2.764,3.943,2.628,9.359.846,13.833s-4.983,8.212-8.153,11.836c-5.538,6.33-11.188,12.623-17.754,17.88-1.873,1.5-3.873,2.975-5.039,5.072s-1.227,5.041.566,6.636c-1.283.064-3.584.7-4.866.759a113.136,113.136,0,0,1-.293-15.477c-5.063-2.431-10.514,4.079-9.86,9.657s4.688,10.054,7.56,14.88c2.1,3.529,3.662,7.644,2.96,11.69s-4.313,7.779-8.4,7.423c-6.508-.568-9.23-9.91-15.674-10.979a2.633,2.633,0,0,0-1.7.168c-.957.525-1.123,1.8-1.177,2.895-.264,5.349-.492,10.911,1.6,15.843,3.055,7.215,10.946,13.275,9.291,20.933-8.918-4.145-13.555-14.146-15.66-23.752S877.771,468.583,874,459.5c-2.865,3.673-8.888.637-11.507-3.216-2.482-3.653-4.01-7.878-6.419-11.581s-6.1-7.017-10.509-7.221c-4.625-.213-8.637,2.961-12.165,5.96-2.9,2.466-5.879,5.029-7.575,8.439-2.468,4.961-1.822,10.809-1.941,16.349-.129,5.989-1.4,12.307-5.479,16.691s-11.615,5.911-16.117,1.96c-2.35-2.063-3.488-5.145-4.5-8.1A396.69,396.69,0,0,1,785.6,435.269c-.756,3.361-3.707,7.692-6.526,5.712a5.843,5.843,0,0,1-1.5-1.937c-5.258-8.912-15-14.258-24.835-17.463s-20.191-4.7-29.92-8.223a75.788,75.788,0,0,1-15.521-7.731,12.207,12.207,0,0,0-.746,12.487c2.158,3.822,7.042,6.033,11.223,4.7,2.16-.69,3.985-2.19,6.129-2.931s5.021-.377,5.958,1.688c.9,1.977-.459,4.368.214,6.432,1.025,3.144,5.766,3.386,7.424,6.247,1.234,2.128.219,4.955-1.543,6.672s-4.111,2.66-6.261,3.855c-6.976,3.879-11.937,10.5-18.034,15.654s-14.7,8.914-21.965,5.609c1.732-8.77-8.715-15.209-10.637-23.939-.633-2.874-.3-5.926-1.208-8.726-1.308-4.054-4.9-6.842-7.856-9.915a38.912,38.912,0,0,1-10.673-28.31c.159-3.608.822-7.275,0-10.792s-3.734-6.921-7.342-6.762c-8.241.364-18.623.977-22.947-6.048-1.543-2.507-2.215-6.18.016-8.1,1.574-1.355,3.9-1.227,5.964-1.024l18.568,1.827c4.343.427,9.037.78,12.764-1.491s5.341-8.3,1.891-10.968c-2.521-1.952-7.039-1.846-7.772-4.949-.61-2.584,2.25-5.517.705-7.677-1.108-1.549-3.6-1.119-5.108.042s-2.6,2.859-4.293,3.738c-2.963,1.542-6.5.074-9.691-.923s-7.461-1.082-9.007,1.879c-1.729,3.311,1.534,7.65-.182,10.968-2.269,4.387-9.953,1.889-13.139,5.663-3.656,4.33,2.488,10.786,1.255,16.318a10.158,10.158,0,0,1-10.007-.562,9.72,9.72,0,0,1-4.2-9.051c.305-2.488,1.6-5.028.733-7.38-.7-1.9-2.612-3.033-4.386-4.013l-18.044-9.971c-1.675,3.108.443,6.961,3.091,9.295s5.966,4.092,7.707,7.164a9.4,9.4,0,0,1-3.538,12.4,2.171,2.171,0,0,1-1.789.312,2.5,2.5,0,0,1-1.16-1.56c-3.184-8.147-7.964-16.18-15.606-20.436s-18.623-3.381-23.634,3.789c-1.19,1.7-1.989,3.644-3.026,5.444-5.509,9.565-17.319,14.095-28.354,13.8a5.631,5.631,0,0,1-3.093-.727c-1.783-1.232-1.7-3.845-1.43-6l1.158-9.124c.233-1.832.57-3.857,2.02-5,2.044-1.612,4.993-.595,7.6-.632a9.627,9.627,0,0,0,8.738-6.744,10.849,10.849,0,0,0-3.02-10.789c-1.193-1.121-2.795-2.528-2.164-4.039a3.339,3.339,0,0,1,2.342-1.577c4.676-1.358,9.617-1.714,14.215-3.316s9.057-4.88,10.146-9.626c.334-1.454.486-3.216,1.792-3.937a5.374,5.374,0,0,1,2.071-.423,10.077,10.077,0,0,0,8.644-10.506c2.2-1.54,5.291-.407,7.423,1.231s4.014,3.8,6.608,4.507c4.834,1.316,9.506-2.964,14.516-2.984,2.107-.008,4.288.737,6.27.022,2.009-.724,3.209-2.724,4.751-4.2s4.248-2.379,5.672-.787l-1.213-8.982a17.658,17.658,0,0,0,14.371-2.6l-15.672-5.3a3.408,3.408,0,0,1-1.466-.784c-1.139-1.227-.008-3.139.919-4.533,2.216-3.336,2.589-8.832-1.056-10.493-2.488-1.134-5.344.227-7.732,1.559l-11.439,6.378c-.364,2.174,2.3,3.407,3.943,4.871a6.611,6.611,0,0,1-4.311,11.552,8.238,8.238,0,0,1,1.471,6.984l-7.7.553a3.334,3.334,0,0,1-2.5-.487c-.823-.731-.711-2.012-.9-3.1-.46-2.617-3.023-4.451-5.638-4.921s-5.291.133-7.88.728a4.7,4.7,0,0,1-3.387-.078,3.383,3.383,0,0,1-1.34-1.691c-1.135-2.753-.074-5.988,1.749-8.342s4.32-4.075,6.561-6.035A38.243,38.243,0,0,0,581.2,259.073c4.237-1.775,8.623-4.187,12.86-5.962a39.351,39.351,0,0,1,21.151-4.1l14.348.274c4.248.081,8.611.185,12.539,1.8s7.38,5.122,7.651,9.362a2.874,2.874,0,0,1-.92,2.627,3.39,3.39,0,0,1-1.814.409C643.05,263.629,641.361,264.616,637.4,264.755Z" transform="translate(-11.697 -13.011)" fill="#3f3d56"/>
    <path id="Caminho_415" data-name="Caminho 415" d="M523.036,309.723a4.2,4.2,0,0,0,1.145-4.223,7.854,7.854,0,0,0-8.132,1.536,13.709,13.709,0,0,0-2.179,2.88c-1.885,3.076-3.553,6.75-2.46,10.189a2.894,2.894,0,0,0,1.325,1.812,3.483,3.483,0,0,0,1.544.242,51.75,51.75,0,0,0,6.214-.382c1.266-.155,2.737-.512,3.226-1.69.643-1.548-.914-3.3-.46-4.915a5.369,5.369,0,0,1,1.326-1.9,2.51,2.51,0,0,0,.782-2.107c-.183-.757-1.343-1.187-1.76-.529" transform="translate(-11.697 -13.011)" fill="#3f3d56"/>
    <path id="Caminho_416" data-name="Caminho 416" d="M533.806,295.759a17.385,17.385,0,0,0-5.631-.354,2.455,2.455,0,0,0-1.2.273,2,2,0,0,0-.739,1.071,5.319,5.319,0,0,0,3.1,6.519,6.655,6.655,0,0,1,1.92.772c1.593,1.236.577,3.761.879,5.754.339,2.238,2.5,4.116,2.108,6.345-.313,1.755-2.188,3.146-1.886,4.9.316,1.841,2.652,2.394,4.514,2.541a5.677,5.677,0,0,0,3.2-.367,4.952,4.952,0,0,0,2.018-2.922,18.728,18.728,0,0,0,.944-7.052,6.688,6.688,0,0,0-.8-3.113A17.374,17.374,0,0,0,540.373,308C536.806,303.852,540.562,297.663,533.806,295.759Z" transform="translate(-11.697 -13.011)" fill="#3f3d56"/>
    <path id="Caminho_417" data-name="Caminho 417" d="M1002.87,620.795s-273.2-156.823-390.821-127.109c0,0-249.265,26.825-278.154,85.84,0,0-79.237-247.615-108.125-255.868" transform="translate(-11.697 -13.011)" fill="none" stroke="#6c63ff" stroke-miterlimit="10" stroke-width="2" opacity="0.8"/>
    <path id="Caminho_418" data-name="Caminho 418" d="M333.895,579.526C379.7,457.369,792.4,322.007,792.4,322.007c-58.6,14.857-180.346,171.679-180.346,171.679S354.53,306.324,225.77,323.657c0,0,567.037,18.571,777.1,297.137" transform="translate(-11.697 -13.011)" fill="none" stroke="#6c63ff" stroke-miterlimit="10" stroke-width="2" opacity="0.8"/>
    <circle id="Elipse_133" data-name="Elipse 133" cx="11.968" cy="11.968" r="11.968" transform="translate(202.106 298.679)" fill="#6c63ff"/>
    <circle id="Elipse_134" data-name="Elipse 134" cx="11.968" cy="11.968" r="11.968" transform="translate(310.231 554.547)" fill="#6c63ff"/>
    <circle id="Elipse_135" data-name="Elipse 135" cx="11.968" cy="11.968" r="11.968" transform="translate(768.73 297.028)" fill="#6c63ff"/>
    <circle id="Elipse_136" data-name="Elipse 136" cx="11.968" cy="11.968" r="11.968" transform="translate(979.203 595.816)" fill="#6c63ff"/>
    <circle id="Elipse_137" data-name="Elipse 137" cx="11.968" cy="11.968" r="11.968" transform="translate(588.384 468.707)" fill="#6c63ff"/>
  </g>
</svg>
